<svg xmlns="http://www.w3.org/2000/svg" id="Instagram-color" width="26" height="25.999" viewBox="0 0 26 25.999">
    <defs>
        <style>
            .cls-1{fill:#fff;fill-rule:evenodd}
        </style>
    </defs>
    <g id="Color-">
        <path id="Instagram" d="M513 160c-3.531 0-3.973.015-5.36.078a9.54 9.54 0 0 0-3.156.6 6.647 6.647 0 0 0-3.8 3.8 9.541 9.541 0 0 0-.6 3.156c-.063 1.387-.078 1.829-.078 5.36s.015 3.973.078 5.36a9.541 9.541 0 0 0 .6 3.156 6.647 6.647 0 0 0 3.8 3.8 9.541 9.541 0 0 0 3.156.6c1.387.063 1.829.078 5.36.078s3.973-.015 5.36-.078a9.541 9.541 0 0 0 3.156-.6 6.648 6.648 0 0 0 3.8-3.8 9.543 9.543 0 0 0 .6-3.156c.063-1.387.078-1.829.078-5.36s-.015-3.973-.078-5.36a9.543 9.543 0 0 0-.6-3.156 6.647 6.647 0 0 0-3.8-3.8 9.54 9.54 0 0 0-3.156-.6c-1.387-.063-1.829-.078-5.36-.078zm0 2.342c3.471 0 3.882.013 5.253.076a7.192 7.192 0 0 1 2.414.448 4.3 4.3 0 0 1 2.467 2.467 7.192 7.192 0 0 1 .448 2.414c.063 1.371.076 1.782.076 5.253s-.013 3.882-.076 5.253a7.191 7.191 0 0 1-.448 2.414 4.3 4.3 0 0 1-2.467 2.467 7.193 7.193 0 0 1-2.414.448c-1.371.063-1.782.076-5.253.076s-3.883-.013-5.253-.076a7.192 7.192 0 0 1-2.414-.448 4.306 4.306 0 0 1-2.467-2.467 7.193 7.193 0 0 1-.448-2.414c-.062-1.371-.076-1.782-.076-5.253s.013-3.882.076-5.253a7.193 7.193 0 0 1 .448-2.414 4.306 4.306 0 0 1 2.467-2.467 7.192 7.192 0 0 1 2.414-.448c1.371-.062 1.782-.076 5.253-.076zm0 3.982a6.675 6.675 0 1 0 6.676 6.676 6.676 6.676 0 0 0-6.676-6.676zm0 11.009a4.333 4.333 0 1 1 4.333-4.333 4.333 4.333 0 0 1-4.333 4.333zm8.5-11.272a1.56 1.56 0 1 1-1.56-1.56 1.56 1.56 0 0 1 1.56 1.559z" class="cls-1" transform="translate(-500 -160)"/>
    </g>
</svg>
