<svg xmlns="http://www.w3.org/2000/svg" width="28" height="26" viewBox="0 0 28 26">
    <defs>
        <style>
            .cls-1{fill:#fff}
        </style>
    </defs>
    <g id="telegram-logo" transform="translate(0 -9.997)">
        <path id="Path_1444" d="M22.541 36a1.08 1.08 0 0 1-.622-.2l-7.04-4.958-3.779 2.82a1.076 1.076 0 0 1-1.022.149 1.136 1.136 0 0 1-.7-.789l-1.9-7.459-6.766-2.69A1.167 1.167 0 0 1 .7 20.729l25.76-10.641a1.075 1.075 0 0 1 .363-.088 1.114 1.114 0 0 1 .134 0 1.087 1.087 0 0 1 .71.327c.021.021.04.042.059.064a1.169 1.169 0 0 1 .271.673 1.211 1.211 0 0 1 0 .184 1.158 1.158 0 0 1-.018.131l-4.35 23.683a1.142 1.142 0 0 1-.664.847 1.072 1.072 0 0 1-.424.091zM15.5 28.5l6.271 4.416 3.383-18.428L12.931 26.69l2.535 1.785zm-5.221-.982l.84 3.3 1.809-1.351-2.372-1.667a1.126 1.126 0 0 1-.28-.286zm-6.121-5.741l4.652 1.846a1.137 1.137 0 0 1 .676.781l.59 2.321a1.169 1.169 0 0 1 .334-.709l11.642-11.631z" class="cls-1" data-name="Path 1444"/>
    </g>
</svg>
