<svg xmlns="http://www.w3.org/2000/svg" width="77.539" height="90" viewBox="0 0 77.539 90">
  <g id="Group_5526" data-name="Group 5526" transform="translate(-103.124 -39.548)">
    <g id="Group_5505" data-name="Group 5505" transform="translate(115.089 91.956)">
      <g id="Group_5504" data-name="Group 5504" transform="translate(0)">
        <path id="Path_1462" data-name="Path 1462" d="M237.885,599.212a8.358,8.358,0,0,1-8.349-8.349v-7.735a2.152,2.152,0,1,1,4.3,0v7.735a4.045,4.045,0,0,0,8.091,0v-7.735a2.152,2.152,0,1,1,4.3,0v7.735A8.358,8.358,0,0,1,237.885,599.212Z" transform="translate(-229.182 -580.621)" fill="#5439ac"/>
        <path id="Path_1463" data-name="Path 1463" d="M234.643,596.323a8.713,8.713,0,0,1-8.7-8.7v-7.735a2.506,2.506,0,1,1,5.012,0v7.735a3.691,3.691,0,1,0,7.382,0v-7.735a2.506,2.506,0,1,1,5.012,0v7.735A8.713,8.713,0,0,1,234.643,596.323Zm-6.2-18.236a1.8,1.8,0,0,0-1.8,1.8v7.735a7.994,7.994,0,0,0,15.989,0v-7.735a1.8,1.8,0,1,0-3.594,0v7.735a4.4,4.4,0,1,1-8.8,0v-7.735A1.8,1.8,0,0,0,228.445,578.087Z" transform="translate(-225.939 -577.378)" fill="#5439ac"/>
      </g>
    </g>
    <g id="Group_5507" data-name="Group 5507" transform="translate(103.124 91.641)">
      <g id="Group_5506" data-name="Group 5506" transform="translate(0)">
        <path id="Path_1464" data-name="Path 1464" d="M108.872,596.314a2.152,2.152,0,0,1-2.152-2.134,16.422,16.422,0,0,1,13.759-16.388,2.152,2.152,0,1,1,.716,4.243,12.136,12.136,0,0,0-10.172,12.11,2.152,2.152,0,0,1-2.134,2.169Z" transform="translate(-106.366 -577.406)" fill="#5439ac"/>
        <path id="Path_1465" data-name="Path 1465" d="M105.649,593.428h-.019a2.513,2.513,0,0,1-2.506-2.486A16.775,16.775,0,0,1,117.18,574.2a2.506,2.506,0,1,1,.833,4.943,11.783,11.783,0,0,0-9.876,11.758,2.506,2.506,0,0,1-2.486,2.526ZM117.6,574.876a1.8,1.8,0,0,0-.3.025,16.068,16.068,0,0,0-13.464,16.036,1.8,1.8,0,0,0,1.8,1.783h.018a1.8,1.8,0,0,0,1.78-1.812A12.49,12.49,0,0,1,117.9,578.445a1.8,1.8,0,0,0-.3-3.57Z" transform="translate(-103.124 -574.167)" fill="#5439ac"/>
      </g>
    </g>
    <g id="Group_5509" data-name="Group 5509" transform="translate(105.202 94.404)">
      <g id="Group_5508" data-name="Group 5508" transform="translate(0)">
        <path id="Path_1466" data-name="Path 1466" d="M143.825,640.418c-6.76,0-12.623-2.965-15.684-7.932a2.163,2.163,0,0,1,.684-2.964,2.12,2.12,0,0,1,2.935.69c2.277,3.7,6.787,5.9,12.064,5.9,11.78,0,23.417-8.953,34.671-17.611,1.822-1.4,3.707-2.852,5.568-4.246a2.114,2.114,0,0,1,2.228-.194,2.155,2.155,0,0,1,1.173,1.922v4.427a4.007,4.007,0,1,0,8.014,0V610.084a2.132,2.132,0,1,1,4.263,0v10.328a8.27,8.27,0,1,1-16.54,0V620.3q-1.07.819-2.123,1.631C169.263,631.018,157.045,640.418,143.825,640.418Z" transform="translate(-127.465 -607.578)" fill="#5439ac"/>
        <path id="Path_1467" data-name="Path 1467" d="M140.575,637.531c-6.883,0-12.858-3.028-15.983-8.1a2.519,2.519,0,0,1,.8-3.452,2.473,2.473,0,0,1,3.419.8c2.213,3.591,6.612,5.735,11.767,5.735,11.663,0,23.252-8.915,34.46-17.537,1.825-1.4,3.71-2.855,5.573-4.25a2.448,2.448,0,0,1,2.6-.226,2.5,2.5,0,0,1,1.367,2.239v4.427a3.657,3.657,0,1,0,7.313,0V606.842a2.483,2.483,0,1,1,4.965,0v10.329a8.62,8.62,0,0,1-17.224.583l-1.579,1.213C166.182,628.093,153.915,637.531,140.575,637.531ZM126.7,626.311a1.758,1.758,0,0,0-.938.271,1.806,1.806,0,0,0-.572,2.475c3,4.862,8.748,7.765,15.387,7.765,13.1,0,25.274-9.364,37.045-18.419l2.687-2.063v.831a7.92,7.92,0,1,0,15.839,0V606.842a1.781,1.781,0,1,0-3.561,0v10.329a4.359,4.359,0,1,1-8.717,0v-4.427a1.792,1.792,0,0,0-.98-1.606,1.759,1.759,0,0,0-1.862.162c-1.86,1.394-3.743,2.842-5.565,4.243-11.3,8.694-22.987,17.683-34.887,17.683-5.4,0-10.021-2.269-12.363-6.069A1.777,1.777,0,0,0,126.7,626.311Z" transform="translate(-124.216 -604.336)" fill="#5439ac"/>
      </g>
    </g>
    <g id="Group_5511" data-name="Group 5511" transform="translate(103.125 54.602)">
      <g id="Group_5510" data-name="Group 5510" transform="translate(0)">
        <path id="Path_1468" data-name="Path 1468" d="M124.8,230.872a19.556,19.556,0,0,1-11.479-3.448,15.54,15.54,0,0,1-6.36-10.31,16.5,16.5,0,0,1,13.4-19.015,2.151,2.151,0,0,1,.709,4.244,12,12,0,0,0-7.838,4.957,12.2,12.2,0,0,0-2.07,9.1c1.254,7.506,8.129,10.17,13.635,10.17,11.783,0,23.423-8.953,34.68-17.611,1.823-1.4,3.708-2.852,5.57-4.246a2.115,2.115,0,0,1,2.229-.194,2.154,2.154,0,0,1,1.174,1.922v4.427a4.008,4.008,0,1,0,8.016,0V200.538a2.132,2.132,0,1,1,4.264,0v10.329a8.273,8.273,0,1,1-16.544,0v-.117c-.713.546-1.423,1.092-2.123,1.631C150.244,221.472,138.022,230.872,124.8,230.872Z" transform="translate(-106.376 -197.715)" fill="#5439ac"/>
        <path id="Path_1469" data-name="Path 1469" d="M121.553,227.987a19.9,19.9,0,0,1-11.683-3.513,15.887,15.887,0,0,1-6.5-10.54,16.86,16.86,0,0,1,13.693-19.424,2.458,2.458,0,0,1,1.852.429,2.521,2.521,0,0,1,.585,3.5,2.466,2.466,0,0,1-1.611,1.019,11.647,11.647,0,0,0-7.611,4.813,11.847,11.847,0,0,0-2.009,8.835c1.217,7.288,7.92,9.874,13.29,9.874,11.666,0,23.258-8.915,34.469-17.537,1.825-1.4,3.711-2.855,5.575-4.25a2.449,2.449,0,0,1,2.6-.226,2.5,2.5,0,0,1,1.367,2.239v4.427a3.658,3.658,0,1,0,7.315,0V197.3a2.483,2.483,0,1,1,4.967,0v10.329a8.622,8.622,0,0,1-17.229.584l-1.58,1.213C147.166,218.55,134.9,227.987,121.553,227.987Zm-4.078-32.8a1.754,1.754,0,0,0-.3.026,16.15,16.15,0,0,0-13.117,18.607,15.192,15.192,0,0,0,6.218,10.08,19.217,19.217,0,0,0,11.277,3.382c13.105,0,25.28-9.363,37.054-18.419L161.3,206.8v.831a7.922,7.922,0,1,0,15.843,0V197.3a1.781,1.781,0,1,0-3.562,0v10.329a4.36,4.36,0,1,1-8.72,0V203.2a1.792,1.792,0,0,0-.98-1.606,1.76,1.76,0,0,0-1.862.162c-1.861,1.394-3.744,2.842-5.567,4.244-11.3,8.694-22.993,17.683-34.9,17.683-5.643,0-12.692-2.741-13.982-10.465a12.557,12.557,0,0,1,2.13-9.363,12.345,12.345,0,0,1,8.067-5.1,1.767,1.767,0,0,0,1.155-.73,1.809,1.809,0,0,0-.419-2.507A1.759,1.759,0,0,0,117.475,195.184Z" transform="translate(-103.132 -194.476)" fill="#5439ac"/>
      </g>
    </g>
    <g id="Group_5513" data-name="Group 5513" transform="translate(135.793 81.274)">
      <g id="Group_5512" data-name="Group 5512" transform="translate(0 0)">
        <path id="Path_1470" data-name="Path 1470" d="M447.387,499.7a2.152,2.152,0,0,1-1.155-3.969l36.734-23.325a2.152,2.152,0,0,1,2.307,3.633l-36.734,23.325A2.139,2.139,0,0,1,447.387,499.7Z" transform="translate(-444.878 -471.716)" fill="#5439ac"/>
        <path id="Path_1471" data-name="Path 1471" d="M444.141,496.812a2.506,2.506,0,0,1-1.345-4.622l36.734-23.325a2.506,2.506,0,1,1,2.686,4.231l-36.733,23.325A2.5,2.5,0,0,1,444.141,496.812Zm36.728-27.63a1.784,1.784,0,0,0-.959.281l-36.734,23.325a1.8,1.8,0,0,0-.554,2.481,1.84,1.84,0,0,0,2.481.554L481.836,472.5a1.8,1.8,0,0,0-.572-3.272A1.834,1.834,0,0,0,480.869,469.183Z" transform="translate(-441.632 -468.474)" fill="#5439ac"/>
      </g>
    </g>
    <g id="Group_5515" data-name="Group 5515" transform="translate(118.376 39.548)">
      <g id="Group_5514" data-name="Group 5514" transform="translate(0 0)">
        <path id="Path_1472" data-name="Path 1472" d="M273.193,79.488a12.043,12.043,0,0,1-3.134-.421,2.152,2.152,0,0,1,1.113-4.157c3.807,1.018,7.2-1.053,11.892-3.921q.862-.526,1.771-1.076l41.912-26.452a2.152,2.152,0,1,1,2.289,3.644l-41.93,26.463-.037.023q-.906.544-1.762,1.07C281.127,77.215,277.407,79.488,273.193,79.488Z" transform="translate(-268.108 -42.779)" fill="#5439ac"/>
        <path id="Path_1473" data-name="Path 1473" d="M269.954,76.611a12.5,12.5,0,0,1-3.226-.433,2.506,2.506,0,1,1,1.3-4.842c3.659.979,7-1.059,11.615-3.881q.863-.527,1.773-1.077l41.906-26.448a2.506,2.506,0,1,1,2.666,4.244L284.055,70.638c-.647.389-1.233.747-1.8,1.1C277.968,74.351,274.268,76.611,269.954,76.611Zm-2.582-4.652a1.8,1.8,0,0,0-.461,3.535,11.621,11.621,0,0,0,3.043.408c4.115,0,7.736-2.212,11.929-4.774q.858-.524,1.764-1.072l41.96-26.481a1.8,1.8,0,1,0-1.912-3.045L281.784,66.982c-.613.368-1.2.728-1.775,1.078-4.769,2.913-8.212,5.017-12.168,3.96A1.813,1.813,0,0,0,267.371,71.959Z" transform="translate(-264.869 -39.548)" fill="#5439ac"/>
      </g>
    </g>
    <g id="Group_5517" data-name="Group 5517" transform="translate(114.998 112.02)">
      <g id="Group_5516" data-name="Group 5516" transform="translate(0 0)">
        <circle id="Ellipse_180" data-name="Ellipse 180" cx="2.267" cy="2.267" r="2.267" transform="translate(0.354 0.355)" fill="#5439ac"/>
        <path id="Path_1474" data-name="Path 1474" d="M227.391,788.36a2.621,2.621,0,1,1,2.622-2.621A2.624,2.624,0,0,1,227.391,788.36Zm0-4.534a1.913,1.913,0,1,0,1.913,1.913A1.915,1.915,0,0,0,227.391,783.826Z" transform="translate(-224.77 -783.117)" fill="#5439ac"/>
      </g>
    </g>
    <g id="Group_5519" data-name="Group 5519" transform="translate(151.607 93.806)">
      <g id="Group_5518" data-name="Group 5518" transform="translate(0)">
        <path id="Path_1475" data-name="Path 1475" d="M615.206,610.425a2.152,2.152,0,0,1-2.152-2.152c0-1.465-.265-3.375-1.528-4.153a4.882,4.882,0,0,0-4.337.174,2.152,2.152,0,1,1-1.933-3.845c2.164-1.088,5.7-1.739,8.528.008,1.63,1.005,3.573,3.177,3.573,7.817A2.152,2.152,0,0,1,615.206,610.425Z" transform="translate(-603.715 -599.024)" fill="#5439ac"/>
        <path id="Path_1476" data-name="Path 1476" d="M611.956,607.551a2.509,2.509,0,0,1-2.506-2.506c0-1.375-.236-3.158-1.36-3.851a4.587,4.587,0,0,0-3.992.189,2.506,2.506,0,0,1-2.251-4.478c2.245-1.129,5.917-1.8,8.874.023,1.707,1.052,3.741,3.315,3.741,8.118A2.509,2.509,0,0,1,611.956,607.551Zm-5.453-7.446a3.737,3.737,0,0,1,1.96.485c1.4.865,1.7,2.9,1.7,4.455a1.8,1.8,0,1,0,3.594,0c0-4.476-1.852-6.557-3.4-7.515-2.707-1.67-6.1-1.04-8.183.007a1.8,1.8,0,1,0,1.614,3.211A6.3,6.3,0,0,1,606.5,600.105Z" transform="translate(-600.466 -595.795)" fill="#5439ac"/>
      </g>
    </g>
    <g id="Group_5521" data-name="Group 5521" transform="translate(151.71 53.72)">
      <g id="Group_5520" data-name="Group 5520" transform="translate(0 0)">
        <path id="Path_1477" data-name="Path 1477" d="M616.133,199.922a2.152,2.152,0,0,1-2.152-2.152c0-2.2-.775-3.892-2.127-4.635a3.32,3.32,0,0,0-3.45.232,2.152,2.152,0,1,1-2.307-3.633,7.6,7.6,0,0,1,7.829-.371c2.77,1.522,4.358,4.586,4.358,8.406A2.152,2.152,0,0,1,616.133,199.922Z" transform="translate(-604.745 -188.096)" fill="#5439ac"/>
        <path id="Path_1478" data-name="Path 1478" d="M612.9,197.027a2.509,2.509,0,0,1-2.506-2.506c0-2.069-.709-3.645-1.944-4.324a2.977,2.977,0,0,0-3.089.222,2.506,2.506,0,0,1-3.458-.772,2.508,2.508,0,0,1,.772-3.459,7.95,7.95,0,0,1,8.19-.382c2.886,1.586,4.541,4.763,4.541,8.717A2.509,2.509,0,0,1,612.9,197.027Zm-5.755-7.876a3.4,3.4,0,0,1,1.647.424c1.469.807,2.311,2.61,2.311,4.945a1.8,1.8,0,1,0,3.594,0c0-3.687-1.521-6.638-4.174-8.1a7.258,7.258,0,0,0-7.469.36,1.8,1.8,0,0,0,1.926,3.035A4.042,4.042,0,0,1,607.145,189.151Z" transform="translate(-601.513 -184.847)" fill="#5439ac"/>
      </g>
    </g>
    <g id="Group_5523" data-name="Group 5523" transform="translate(146.011 76.879)">
      <g id="Group_5522" data-name="Group 5522" transform="translate(0 0)">
        <path id="Path_1479" data-name="Path 1479" d="M549.045,437.74a2.152,2.152,0,0,1-1.155-3.969l11.87-7.537a2.152,2.152,0,0,1,2.307,3.633L550.2,437.4A2.139,2.139,0,0,1,549.045,437.74Z" transform="translate(-546.536 -425.544)" fill="#5439ac"/>
        <path id="Path_1480" data-name="Path 1480" d="M545.8,434.85a2.506,2.506,0,0,1-1.345-4.622l11.87-7.537a2.506,2.506,0,0,1,2.687,4.231l-11.87,7.537A2.5,2.5,0,0,1,545.8,434.85Zm11.864-11.842a1.784,1.784,0,0,0-.959.281l-11.87,7.537a1.8,1.8,0,0,0-.554,2.481,1.839,1.839,0,0,0,2.481.554l11.87-7.537a1.8,1.8,0,0,0-.968-3.316Z" transform="translate(-543.289 -422.3)" fill="#5439ac"/>
      </g>
    </g>
    <g id="Group_5525" data-name="Group 5525" transform="translate(145.086 117.618)">
      <g id="Group_5524" data-name="Group 5524">
        <path id="Path_1481" data-name="Path 1481" d="M539.412,854.738a2.152,2.152,0,0,1-1.2-3.941l10.352-6.918a2.152,2.152,0,0,1,2.391,3.578l-10.352,6.918A2.145,2.145,0,0,1,539.412,854.738Z" transform="translate(-536.904 -843.163)" fill="#5439ac"/>
        <path id="Path_1482" data-name="Path 1482" d="M536.178,851.863a2.506,2.506,0,0,1-1.395-4.59l10.352-6.918a2.506,2.506,0,0,1,2.785,4.167l-10.353,6.918A2.492,2.492,0,0,1,536.178,851.863Zm10.347-11.221a1.789,1.789,0,0,0-1,.3l-10.352,6.918a1.8,1.8,0,0,0-.5,2.494,1.843,1.843,0,0,0,2.493.5l10.353-6.918a1.8,1.8,0,0,0-1-3.291Z" transform="translate(-533.67 -839.934)" fill="#5439ac"/>
      </g>
    </g>
  </g>
</svg>
