<?xml version="1.0" encoding="utf-8"?>
<!-- Generator: Adobe Illustrator 19.0.0, SVG Export Plug-In . SVG Version: 6.00 Build 0)  -->
<svg version="1.1" id="Layer_1" xmlns="http://www.w3.org/2000/svg" xmlns:xlink="http://www.w3.org/1999/xlink" x="0px" y="0px"
	 viewBox="-159 359.4 291.1 75.7" style="enable-background:new -159 359.4 291.1 75.7;" xml:space="preserve">
<style type="text/css">
	.st0{opacity:0.3;fill:#57C5D0;enable-background:new    ;}
	.st1{fill:none;stroke:#5439AC;stroke-miterlimit:10;}
	.st2{fill:#27BDBE;}
	.st3{fill:#5439AC;}
	.st4{fill:none;}
	.st5{fill:none;stroke:#5439AC;}
</style>
<g id="Group_5468" transform="translate(-376.645 -2172)">
	<path id="Path_128" class="st0" d="M506.3,2607l-21.4-7.8l10.6-11L506.3,2607z"/>
	<path id="Path_129" class="st1" d="M507.6,2603.1l-21.4-7.8l10.6-11L507.6,2603.1z"/>
	<path id="Path_1283" class="st2" d="M341,2575.6c0.7-0.4,1.5-0.4,2.3-0.2c1,0.3,1.7,1.1,2,2.1c0.2,0.8,0.2,1.7,0.1,2.5
		c-0.2,2.6-0.6,5.2-0.9,7.8c2.1-0.9,4.2-2,6.2-3c0.9-0.5,1.9-0.9,2.9-1.1c0.8-0.2,1.7-0.1,2.4,0.3c0.7,0.4,1.3,1.1,1.5,1.9
		c0.2,0.7,0.1,1.4-0.3,2c-0.2,0.5-0.6,1-1.1,1.2c-3.3,1.3-6.7,2.2-10.3,2.7c1.3,1.3,2.6,2.6,3.8,3.9c0.3,0.3,0.5,0.6,0.8,1
		c0.7,0.9,1.4,1.6,2.1,2.5c0.6,0.7,0.8,1.6,0.7,2.5c-0.1,0.7-0.5,1.3-1.1,1.8c-0.6,0.5-1.4,0.7-2.2,0.6c-0.7-0.1-1.4-0.5-1.9-1
		c-1.1-1.1-2-2.3-2.7-3.6c-1-1.7-1.9-3.5-2.8-5.2c-1.3,2.3-2.5,4.5-3.8,6.8c-0.5,0.8-1,1.5-1.7,2.2c-0.4,0.4-1,0.7-1.6,0.8
		c-0.9,0.1-1.8-0.1-2.4-0.6c-0.7-0.5-1.1-1.3-1.1-2.1c-0.1-0.6,0.1-1.1,0.4-1.6c2.1-2.8,4.4-5.5,7-7.9c-1.6-0.2-3.1-0.5-4.7-0.9
		c-1.8-0.4-3.6-0.9-5.3-1.6c-0.4-0.1-0.7-0.3-1-0.6c-0.5-0.6-0.8-1.3-0.9-2v-0.4c0.1-0.5,0.2-0.9,0.5-1.3c0.5-0.8,1.4-1.3,2.3-1.4
		c0.8,0,1.5,0.1,2.3,0.4c0.9,0.4,1.9,0.8,2.8,1.2c1.8,0.9,3.5,1.8,5.3,2.6c-0.4-1.9-0.6-3.9-0.8-5.8c-0.1-1.2-0.2-2.4-0.3-3.6
		C339.4,2577.3,340,2576.2,341,2575.6z"/>
	<path id="Path_1283-2" class="st2" d="M285.2,2575.6c0.7-0.4,1.5-0.4,2.3-0.2c1,0.3,1.7,1.1,2,2.1c0.2,0.8,0.2,1.7,0.1,2.5
		c-0.2,2.6-0.6,5.2-0.9,7.8c2.1-0.9,4.2-2,6.2-3c0.9-0.5,1.9-0.9,2.9-1.1c0.8-0.2,1.7-0.1,2.4,0.3c0.7,0.4,1.3,1.1,1.5,1.9
		c0.2,0.7,0.1,1.4-0.3,2c-0.2,0.5-0.6,1-1.1,1.2c-3.3,1.3-6.7,2.2-10.3,2.7c1.3,1.3,2.6,2.6,3.8,3.9c0.3,0.3,0.5,0.6,0.8,1
		c0.7,0.9,1.4,1.6,2.1,2.5c0.6,0.7,0.8,1.6,0.7,2.5c-0.1,0.7-0.5,1.3-1.1,1.8c-0.6,0.5-1.4,0.7-2.2,0.6c-0.7-0.1-1.4-0.5-1.9-1
		c-1.1-1.1-2-2.3-2.7-3.6c-1-1.7-1.9-3.5-2.8-5.2c-1.3,2.3-2.5,4.5-3.8,6.8c-0.5,0.8-1,1.5-1.7,2.2c-0.4,0.4-1,0.7-1.6,0.8
		c-0.9,0.1-1.8-0.1-2.4-0.6c-0.7-0.5-1.1-1.3-1.1-2.1c-0.1-0.6,0.1-1.1,0.4-1.6c2.1-2.8,4.4-5.5,7-7.9c-1.6-0.2-3.1-0.5-4.7-0.9
		c-1.8-0.4-3.6-0.9-5.3-1.6c-0.4-0.1-0.7-0.3-1-0.6c-0.5-0.6-0.8-1.3-0.9-2v-0.4c0.1-0.5,0.2-0.9,0.5-1.3c0.5-0.8,1.4-1.3,2.3-1.4
		c0.8,0,1.5,0.1,2.3,0.4c0.9,0.4,1.9,0.8,2.8,1.2c1.8,0.9,3.5,1.8,5.3,2.6c-0.4-1.9-0.6-3.9-0.8-5.8c-0.1-1.2-0.2-2.4-0.3-3.6
		C283.5,2577.3,284.2,2576.2,285.2,2575.6z"/>
	<path id="Path_1439" class="st3" d="M310.7,2604.8c0-0.8,0-2.1,0.1-4l0-1.6l0-1.7c0-0.6,0-1.3,0-1.8c0-0.6,0-1.2,0-1.7
		c0-2.8-0.1-5.3-0.3-7.7c-0.4-5.6-1.4-11.2-3-16.6l8-2.6c1.9,6,3,12.2,3.4,18.5c0.2,2.6,0.3,5.4,0.3,8.3c0,0.6,0,1.2,0,1.8
		c0,0.6,0,1.3,0,1.9c0,0.5,0,1.1,0,1.7v0.8l0,0.8c0,1.9-0.1,3.2-0.1,3.9H310.7z"/>
	<path id="Path_1440" class="st3" d="M395,2588.2c-0.1,0-0.1,0-0.2,0c-0.1,0-0.3,0-0.5,0.1c-0.6,0.1-1.2,0.2-1.9,0.3
		c-2.1,0.3-4.3,0.5-6.7,0.6c-0.8,0-1.6,0.1-2.3,0.1c-3.4,0-6.9-0.4-10.2-1.4c0.2,2.4,0.3,5,0.3,7.8c0,1.1,0,2.2,0,3.5v5.7h-8.5v-2.6
		c0-1,0-1.8,0-2.5c0-1,0-1.8,0-2.7c0-2.1-0.1-4.1-0.2-5.9c-0.2-4.5-0.7-9.1-1.6-13.5c-0.1-0.6-0.2-1-0.3-1.3h0
		c-0.6-2.6-1.2-5-1.9-7.3l8-2.6c1,3.1,1.8,6.2,2.4,9.3c0.1,0.3,0.2,0.5,0.3,0.8v-0.4l0-0.5c0-0.3,0-0.6,0.1-1c0.1-0.5,0.2-1,0.3-1.5
		c0.4-1.3,0.9-2.6,1.7-3.8c2.3-3.3,5.7-4.9,10.4-4.9c1.5,0,3,0.3,4.5,0.9c0.6,0.2,1.2,0.6,1.9,1c0.3,0.2,0.6,0.3,1,0.6l1,0.6
		l0.7,0.5l0.4,0.2l0.4,0.2l-4.1,7.1c-0.9-0.5-1.9-1-2.9-1.4c-1.2-0.4-2.4-0.7-3.6-0.7c-1,0-2.1,0.3-2.9,0.9c-0.6,0.5-1.1,1.2-1.1,2
		c0,0.1,0,0.3,0,0.4c0,1.2,0.6,2.4,1.7,3c1.4,0.8,2.9,1.2,4.5,1.1c0.6,0,1.2,0,1.9-0.1c1.8-0.2,3.5-0.4,5.3-0.9L395,2588.2z"/>
	<path id="Path_1438" class="st2" d="M444.2,2573c0.4-0.1,0.9-0.2,1.4-0.1c0.5,0,1,0.2,1.3,0.6c0.3,0.3,0.5,0.8,0.6,1.3
		c0,1-0.2,2.1-0.4,3.1c-0.2,1.1-0.4,2.2-0.7,3.3c0.6,0,1.3,0.1,1.9,0.4c0.4,0.2,0.8,0.5,1,1c0.3,0.7,0.3,1.6-0.1,2.3
		c-0.3,0.4-0.7,0.8-1.2,0.9c-0.8,0.2-1.6,0.2-2.4,0.2c-0.4,2.1-0.9,4.1-1.3,6.2h2.4c0.6,0,1.2,0.1,1.7,0.4c0.6,0.4,1,1,1.1,1.7
		c0.1,0.7-0.1,1.3-0.6,1.8c-0.6,0.6-1.5,0.9-2.3,0.8h-3.2c-0.4,1.9-0.8,3.9-1.2,5.8c-0.1,0.5-0.3,1-0.5,1.5
		c-0.2,0.3-0.5,0.6-0.9,0.8c-0.5,0.2-1,0.2-1.4,0.1c-0.5-0.1-1-0.3-1.3-0.7c-0.3-0.4-0.5-0.9-0.5-1.4c0-1,0.2-2.1,0.5-3.1
		c0.2-1,0.4-2.1,0.6-3.1c-1.6,0-6.3,0-7.8,0c-0.2,1.2-0.5,2.5-0.8,3.7c-0.2,1.1-0.5,2.2-0.8,3.2c-0.1,0.3-0.3,0.6-0.5,0.9
		c-0.4,0.3-0.8,0.4-1.3,0.4c-0.5,0-1.1-0.1-1.5-0.3c-0.5-0.3-0.9-0.8-0.9-1.4c-0.1-0.6,0-1.1,0.1-1.7c0.3-1.6,0.6-3.2,1-4.9
		c-0.6,0-1.2-0.1-1.7-0.3c-0.4-0.2-0.7-0.4-0.9-0.8c-0.2-0.5-0.3-1-0.3-1.5c0-0.5,0.3-1,0.6-1.3c0.3-0.3,0.8-0.6,1.3-0.7
		c0.7-0.1,1.3-0.1,2-0.1c0.4-2.1,0.8-4.1,1.2-6.2c-0.8,0-1.5,0-2.3,0c-0.6,0-1.2-0.2-1.8-0.5c-0.5-0.3-0.8-0.8-1-1.4
		c-0.2-0.7,0-1.5,0.5-2.1c0.6-0.5,1.3-0.8,2.1-0.8c1.1,0,2.2,0,3.3,0c0.3-1.4,0.6-2.7,0.8-4.1c0.1-0.9,0.4-1.8,0.7-2.7
		c0.2-0.5,0.5-0.9,1-1.2c0.5-0.2,1-0.3,1.5-0.2c0.5,0,1,0.2,1.4,0.6c0.5,0.5,0.7,1.2,0.6,1.8c-0.3,1.9-0.7,3.8-1.1,5.8
		c1.5,0,6.2,0,7.8,0c0.4-1.9,0.8-3.8,1.2-5.6c0.1-0.4,0.2-0.9,0.3-1.3C443.3,2573.6,443.7,2573.2,444.2,2573 M432.8,2585.8
		c-0.4,2.1-0.8,4.1-1.2,6.2c1.6,0,6.3,0,7.9,0c0.4-2.1,0.8-4.1,1.2-6.2C439.1,2585.8,434.4,2585.8,432.8,2585.8L432.8,2585.8z"/>
	<path id="Path_1446" class="st3" d="M291.7,2546.6c-0.4,0-0.7,0-1.1-0.1c-0.3-0.1-0.7-0.2-1-0.4c-0.3-0.2-0.6-0.4-0.8-0.6
		c-0.3-0.2-0.5-0.5-0.7-0.8c-0.2-0.4-0.4-0.8-0.5-1.2c-0.1-0.4-0.2-0.9-0.2-1.4c0-0.3,0-0.6,0.1-0.9c0-0.3,0.1-0.6,0.2-0.9
		c0.1-0.3,0.2-0.6,0.3-0.9c0.1-0.3,0.3-0.7,0.5-1.1l1.5,0.7c-0.2,0.3-0.3,0.6-0.4,0.9c-0.1,0.2-0.2,0.5-0.3,0.8
		c-0.1,0.2-0.1,0.5-0.1,0.7c0,0.2,0,0.5,0,0.7c0,0.3,0,0.6,0.1,0.9c0.1,0.3,0.2,0.5,0.3,0.8c0.2,0.3,0.5,0.6,0.9,0.8
		c0.4,0.2,0.8,0.3,1.2,0.3h1.4c0.4,0,0.8,0,1.2-0.2c0.3-0.1,0.5-0.2,0.7-0.4c0.2-0.2,0.3-0.4,0.3-0.7c0.1-0.3,0.1-0.6,0.1-0.9v-4.6
		h1.7v2.1c0,0.3,0.1,0.5,0.3,0.7c0.2,0.2,0.5,0.2,0.7,0.2h0.5v1.7h-0.5c-0.2,0-0.4,0-0.5,0c-0.2,0-0.3-0.1-0.5-0.1v0.1
		c0.1,1.1-0.3,2.1-1,2.9c-0.9,0.7-1.9,1-3,1H291.7z M291.5,2537.7l1.2-1.3l1.3,1.3l-1.3,1.3L291.5,2537.7z M298.4,2541.2h0.9
		c0.2,0,0.4,0,0.7-0.1c0.1,0,0.3-0.1,0.4-0.2c0.1-0.1,0.2-0.2,0.2-0.3c0-0.1,0-0.3,0-0.4v-2h1.7v2c0,0.3,0.1,0.6,0.3,0.8
		c0.2,0.2,0.5,0.3,0.8,0.3c0.1,0,0.2,0,0.3,0c0.1,0,0.2-0.1,0.3-0.1c0.1-0.1,0.2-0.2,0.2-0.3c0.1-0.2,0.1-0.4,0.1-0.5v-2h1.7v2
		c0,0.3,0.1,0.6,0.3,0.8c0.2,0.2,0.6,0.3,0.9,0.3c0.1,0,0.2,0,0.3-0.1c0.1,0,0.2-0.1,0.3-0.2c0.1-0.1,0.2-0.2,0.2-0.3
		c0.1-0.2,0.1-0.3,0.1-0.5v-2h1.7v2c0,0.3,0.1,0.6,0.3,0.8c0.3,0.2,0.6,0.3,0.9,0.2h0.7v1.7h-0.7c-0.4,0-0.8,0-1.2-0.2
		c-0.3-0.1-0.6-0.3-0.9-0.5c-0.2,0.2-0.5,0.4-0.8,0.5c-0.3,0.1-0.6,0.2-1,0.2c-0.4,0-0.8,0-1.1-0.2c-0.3-0.1-0.6-0.3-0.9-0.5
		c-0.2,0.2-0.5,0.4-0.8,0.5c-0.3,0.1-0.6,0.2-0.9,0.2h0c-0.4,0-0.7-0.1-1.1-0.2c-0.3-0.1-0.6-0.3-0.8-0.5c-0.6,0.5-1.4,0.7-2.2,0.6
		h-0.9L298.4,2541.2z M305,2535.3l-1.2,1.2l-1.2-1.2l1.2-1.2L305,2535.3z M307.9,2535.3l-1.2,1.2l-1.2-1.2l1.2-1.2L307.9,2535.3z
		 M306.4,2533.4l-1.1,1.1l-1.1-1.1l1.1-1.1L306.4,2533.4z M318.8,2541.2v1.7h-1c-0.4,0-0.7-0.1-1.1-0.2c-0.3-0.1-0.6-0.3-0.8-0.5
		c-0.3,0.2-0.6,0.4-0.9,0.5c-0.4,0.1-0.8,0.2-1.2,0.2h-2.4v-1.7h2.4c0.2,0,0.5,0,0.7-0.1c0.1,0,0.3-0.1,0.4-0.2
		c0.1-0.1,0.1-0.2,0.2-0.3c0-0.1,0-0.2,0-0.3v-2.2h1.7v2.2c0,0.2,0,0.3,0.1,0.5c0.1,0.1,0.2,0.2,0.3,0.3c0.1,0.1,0.2,0.1,0.3,0.1
		c0.1,0,0.2,0,0.2,0L318.8,2541.2z M316.1,2546.7l-1.2-1.2l1.1-1.2l1.2,1.2L316.1,2546.7z M313.2,2546.7l-1.2-1.2l1.1-1.2l1.2,1.2
		L313.2,2546.7z M327.4,2542.9h-0.2c-0.4,0-0.7,0-1.1-0.1c-0.3-0.1-0.5-0.2-0.8-0.3c-0.2-0.1-0.5-0.3-0.7-0.5
		c-0.2-0.2-0.4-0.4-0.6-0.6c-0.1,0.3-0.3,0.5-0.5,0.7c-0.2,0.2-0.5,0.4-0.8,0.5c-0.3,0.1-0.7,0.2-1,0.3c-0.3,0-0.6,0.1-0.9,0.1h-2.3
		v-1.7h2.2c0.3,0,0.6,0,0.8-0.1c0.2,0,0.5-0.1,0.7-0.2c0.2-0.1,0.3-0.2,0.4-0.3c0.1-0.1,0.2-0.3,0.2-0.5c0-0.3-0.1-0.5-0.3-0.8
		c-0.2-0.3-0.4-0.7-0.7-1c-0.3-0.4-0.6-0.8-0.9-1.2c-0.3-0.4-0.7-0.8-1-1.3l0.3-1.4l6-2.9l0.7,1.6l-5.2,2.4c0.4,0.6,0.9,1.2,1.3,1.7
		c0.4,0.6,0.9,1.1,1.3,1.7c0.3,0.3,0.5,0.6,0.7,0.9c0.2,0.2,0.4,0.5,0.6,0.7c0.2,0.2,0.4,0.3,0.7,0.4c0.3,0.1,0.5,0.1,0.8,0.1h0.2
		L327.4,2542.9z M334.5,2541.2v1.7h-1c-0.4,0-0.7-0.1-1.1-0.2c-0.3-0.1-0.6-0.3-0.8-0.5c-0.3,0.2-0.6,0.4-0.9,0.5
		c-0.4,0.1-0.8,0.2-1.2,0.2h-2.4v-1.7h2.4c0.2,0,0.5,0,0.7-0.1c0.1,0,0.3-0.1,0.4-0.2c0.1-0.1,0.1-0.2,0.2-0.3c0-0.1,0-0.2,0-0.3
		v-2.2h1.7v2.2c0,0.2,0,0.3,0.1,0.5c0.1,0.1,0.2,0.2,0.3,0.3c0.1,0.1,0.2,0.1,0.3,0.1c0.1,0,0.2,0,0.2,0L334.5,2541.2z
		 M331.8,2546.7l-1.2-1.2l1.1-1.2l1.2,1.2L331.8,2546.7z M328.9,2546.7l-1.2-1.2l1.1-1.2l1.2,1.2L328.9,2546.7z M334.3,2541.2
		c0.3,0,0.7,0,1-0.1c0.2-0.1,0.4-0.1,0.5-0.3c0.1-0.1,0.2-0.2,0.2-0.4c0-0.1,0-0.3,0-0.4v-7h1.7v7c0,0.3,0.1,0.6,0.3,0.8
		c0.2,0.2,0.5,0.4,0.8,0.4h0.2v1.7h-0.2c-0.2,0-0.4,0-0.6,0c-0.2,0-0.3-0.1-0.5-0.1c-0.1-0.1-0.3-0.1-0.4-0.2
		c-0.1-0.1-0.3-0.2-0.4-0.4c-0.1,0.1-0.3,0.3-0.4,0.4c-0.2,0.1-0.4,0.2-0.6,0.2c-0.2,0.1-0.5,0.1-0.7,0.1c-0.3,0-0.6,0-0.9,0V2541.2
		z M343.9,2537.2c0,0,0,0.1,0.1,0.2s0.1,0.3,0.1,0.4c0,0.2,0.1,0.4,0.1,0.6s0.1,0.4,0.1,0.6s0.1,0.4,0.1,0.6c0,0.2,0,0.4,0,0.5
		c0,0.4-0.1,0.8-0.2,1.2c-0.1,0.3-0.3,0.6-0.6,0.9c-0.2,0.2-0.5,0.4-0.8,0.5c-0.3,0.1-0.6,0.2-0.9,0.2h-3v-1.7h3c0.1,0,0.2,0,0.2,0
		c0.1,0,0.2-0.1,0.3-0.1c0.1-0.1,0.2-0.2,0.3-0.3c0.1-0.2,0.1-0.4,0.1-0.6c0-0.1,0-0.2,0-0.4c0-0.1,0-0.3-0.1-0.5
		c0-0.2-0.1-0.3-0.1-0.5l-0.1-0.5c0-0.2-0.1-0.3-0.1-0.4c0-0.1-0.1-0.2-0.1-0.3L343.9,2537.2z M339.1,2545.2l1.2-1.2l1.2,1.2
		l-1.2,1.2L339.1,2545.2z M342,2545.2l1.2-1.2l1.2,1.2l-1.2,1.2L342,2545.2z M340.6,2547.1l1.1-1.1l1.1,1.1l-1.1,1.1L340.6,2547.1z
		 M347.9,2542.9h-1.7v-9.9h1.7L347.9,2542.9z M362.4,2548.1H359c-0.6,0-1.2-0.1-1.8-0.2c-0.5-0.1-1-0.3-1.5-0.7
		c-0.4-0.3-0.7-0.7-1-1.2c-0.2-0.5-0.4-1.1-0.4-1.7c0-0.5,0.1-0.9,0.3-1.3c0.3-0.5,0.6-0.9,1-1.2c0.3-0.2,0.6-0.5,0.8-0.7
		c0.3-0.2,0.6-0.4,0.9-0.6l-1.9-1.8c0-0.1,0-0.2,0-0.4c0-0.1,0.1-0.3,0.1-0.4c0-0.1,0.1-0.3,0.2-0.4c0.1-0.1,0.2-0.3,0.3-0.4
		c0.2-0.2,0.5-0.4,0.8-0.5c0.3-0.1,0.7-0.2,1.1-0.2h2.3c0.2,0,0.4,0,0.6,0.1c0.2,0.1,0.4,0.1,0.5,0.2c0.2,0.1,0.3,0.2,0.4,0.4
		c0.1,0.1,0.2,0.3,0.3,0.5c0.1,0.1,0.1,0.3,0.1,0.4c0,0.1,0,0.3,0,0.4c0,0.2-0.1,0.5-0.2,0.7c-0.1,0.2-0.3,0.4-0.5,0.6
		c-0.2,0.2-0.4,0.4-0.6,0.5c-0.2,0.2-0.5,0.3-0.7,0.5c0.2,0.2,0.4,0.3,0.5,0.4c0.1,0,0.1,0.1,0.2,0.1h2.6v1.7H361
		c-0.1,0-0.3,0-0.4,0c-0.2,0-0.3-0.1-0.4-0.2c-0.2-0.1-0.4-0.2-0.5-0.4c-0.2-0.2-0.5-0.4-0.8-0.6c-0.3,0.2-0.7,0.4-1,0.6
		c-0.3,0.2-0.6,0.4-0.9,0.6c-0.2,0.2-0.4,0.4-0.6,0.7c-0.1,0.2-0.2,0.4-0.2,0.7c0,0.3,0,0.5,0.1,0.8c0.1,0.2,0.2,0.4,0.4,0.6
		c0.2,0.1,0.3,0.3,0.5,0.3c0.2,0.1,0.4,0.2,0.6,0.2c0.2,0,0.4,0.1,0.7,0.1c0.2,0,0.4,0,0.6,0h3.4L362.4,2548.1z M357.9,2538
		c-0.2,0-0.3,0-0.4,0c-0.1,0-0.1,0-0.2,0l0.3,0.3c0.1,0.1,0.2,0.3,0.4,0.4c0.1,0.2,0.3,0.3,0.5,0.5c0.2,0.2,0.3,0.3,0.5,0.5
		c0.3-0.2,0.7-0.5,1-0.7c0.3-0.2,0.5-0.4,0.8-0.6c0,0,0.1-0.1,0.1-0.2c0,0,0-0.1,0-0.1c0,0,0,0,0-0.1c0-0.1-0.1-0.1-0.1-0.1
		c-0.1,0-0.1,0-0.2,0H357.9z M368.4,2537.2c0,0,0,0.1,0.1,0.2c0,0.1,0.1,0.3,0.1,0.4c0,0.2,0.1,0.4,0.1,0.6c0,0.2,0.1,0.4,0.1,0.6
		c0,0.2,0.1,0.4,0.1,0.6c0,0.2,0,0.4,0,0.5c0,0.4-0.1,0.8-0.2,1.2c-0.1,0.3-0.3,0.6-0.6,0.9c-0.2,0.2-0.5,0.4-0.8,0.5
		c-0.3,0.1-0.6,0.2-0.9,0.2h-3v-1.7h3c0.1,0,0.2,0,0.2,0c0.1,0,0.2-0.1,0.3-0.1c0.1-0.1,0.2-0.2,0.3-0.3c0.1-0.2,0.1-0.4,0.1-0.6
		c0-0.1,0-0.2,0-0.4c0-0.1,0-0.3-0.1-0.5c0-0.2-0.1-0.3-0.1-0.5l-0.1-0.5c0-0.2-0.1-0.3-0.1-0.4c0-0.1-0.1-0.2-0.1-0.3L368.4,2537.2
		z M367.6,2546.7l-1.2-1.2l1.1-1.2l1.2,1.2L367.6,2546.7z M364.8,2546.7l-1.2-1.2l1.1-1.2l1.2,1.2L364.8,2546.7z M375.9,2542.9h-0.3
		c-0.2,0-0.4,0-0.5,0c-0.2,0-0.3-0.1-0.5-0.2c0,0.6-0.2,1.1-0.4,1.6c-0.2,0.5-0.5,0.9-0.9,1.2c-0.4,0.3-0.8,0.6-1.3,0.8
		c-0.5,0.2-1.1,0.3-1.7,0.3h-0.9v-1.7h0.9c0.4,0,0.8,0,1.1-0.1c0.3-0.1,0.6-0.2,0.8-0.4c0.2-0.2,0.4-0.5,0.5-0.8
		c0.1-0.4,0.2-0.8,0.2-1.2v-4.2h1.7v2.1c0,0.2,0,0.4,0.1,0.5c0.1,0.1,0.2,0.2,0.3,0.3c0.1,0.1,0.2,0.1,0.3,0.1c0.1,0,0.2,0,0.2,0
		h0.3L375.9,2542.9z M381,2542.9c-0.7,0-1.4-0.2-2-0.7c-0.2,0.2-0.5,0.4-0.8,0.5c-0.3,0.1-0.6,0.2-0.9,0.2h-1.5v-1.7h1.5
		c0.1,0,0.2,0,0.2,0c0.1,0,0.2-0.1,0.3-0.1c0.1-0.1,0.2-0.2,0.3-0.3c0.1-0.2,0.1-0.4,0.1-0.6v-2h1.7v2c0,0.3,0.1,0.6,0.3,0.8
		c0.2,0.2,0.6,0.3,0.9,0.3c0.1,0,0.2,0,0.2,0c0.1,0,0.2-0.1,0.3-0.1c0.1-0.1,0.2-0.2,0.3-0.3c0.1-0.2,0.1-0.4,0.1-0.6v-2h1.7v2
		c0,0.3,0.1,0.6,0.3,0.8c0.2,0.2,0.6,0.3,0.9,0.3c0.1,0,0.2,0,0.2,0c0.1,0,0.2-0.1,0.3-0.2c0.1-0.1,0.2-0.2,0.3-0.3
		c0.1-0.2,0.1-0.4,0.1-0.6c0-0.1,0-0.2,0-0.4c0-0.1,0-0.3-0.1-0.5c0-0.2-0.1-0.3-0.1-0.5c0-0.2-0.1-0.3-0.1-0.5
		c0-0.1-0.1-0.3-0.1-0.4l-0.1-0.3l1.6-0.5c0,0,0,0.1,0.1,0.2c0,0.1,0.1,0.3,0.1,0.4c0,0.2,0.1,0.4,0.1,0.6c0,0.2,0.1,0.4,0.1,0.6
		c0,0.2,0.1,0.4,0.1,0.6c0,0.2,0,0.4,0,0.5c0,0.4-0.1,0.8-0.2,1.2c-0.1,0.3-0.3,0.6-0.6,0.9c-0.2,0.2-0.5,0.4-0.8,0.5
		c-0.3,0.1-0.6,0.2-0.9,0.2c-0.7,0-1.5-0.2-2-0.7c-0.2,0.2-0.5,0.4-0.8,0.5C381.6,2542.9,381.3,2542.9,381,2542.9L381,2542.9z
		 M406.9,2538.2v2c0,0.1,0,0.3,0.1,0.4c0,0.1,0.1,0.2,0.2,0.3c0.1,0.1,0.2,0.1,0.3,0.2c0.1,0,0.2,0.1,0.3,0.1c0.1,0,0.2,0,0.2,0
		c0.1,0,0.1,0,0.1,0h0.4v1.7H408c-0.2,0-0.3,0-0.5,0c-0.2,0-0.4-0.1-0.5-0.1c-0.2,0-0.3-0.1-0.5-0.2c-0.2-0.1-0.3-0.2-0.4-0.3
		c-0.6,0.4-1.3,0.7-2,0.6h-7.9c-0.3,0-0.7-0.1-1-0.2c-0.3-0.1-0.6-0.3-0.8-0.5c-0.1-0.1-0.2-0.2-0.3-0.3c-0.1-0.1-0.2-0.3-0.3-0.4
		c-0.1-0.2-0.1-0.4-0.2-0.6c-0.1-0.2-0.1-0.5-0.1-0.7c0-0.3,0-0.5,0.1-0.7c0-0.3,0.1-0.5,0.2-0.8c0.1-0.2,0.1-0.4,0.2-0.6
		c0.1-0.2,0.1-0.3,0.1-0.3l0.8,0.3l0.8,0.3c0,0.1-0.1,0.3-0.1,0.4c0,0.2-0.1,0.3-0.1,0.5c0,0.2-0.1,0.4-0.1,0.5c0,0.1,0,0.3,0,0.4
		c0,0.2,0,0.4,0.1,0.5c0.1,0.1,0.1,0.2,0.2,0.3c0.1,0.1,0.2,0.1,0.3,0.1c0.1,0,0.2,0,0.3,0h7.9c0.2,0,0.4,0,0.6-0.1
		c0.2,0,0.3-0.1,0.4-0.2c0.1-0.1,0.2-0.3,0.2-0.5v-2.3L406.9,2538.2z M401.6,2537.6l-1.2-1.2l1.1-1.2l1.2,1.2L401.6,2537.6z
		 M398.7,2537.6l-1.2-1.2l1.1-1.2l1.2,1.2L398.7,2537.6z M408.2,2542.9v-1.7h2.8c0.3,0,0.6,0,1-0.1c0.2,0,0.4-0.1,0.6-0.2
		c0.1-0.1,0.3-0.1,0.4-0.2c0.1-0.1,0.1-0.2,0.2-0.3c-0.3,0-0.6,0.1-0.9,0.1c-0.3,0-0.6,0-0.9-0.1c-0.4-0.1-0.7-0.2-1-0.4
		c-0.3-0.2-0.6-0.5-0.8-0.8c-0.2-0.4-0.3-0.8-0.3-1.3c0-0.4,0.1-0.7,0.2-1.1c0.1-0.3,0.3-0.6,0.6-0.9c0.3-0.3,0.6-0.5,0.9-0.6
		c0.3-0.1,0.7-0.2,1-0.2h0.1c0.3,0,0.7,0.1,1,0.2c0.3,0.1,0.5,0.3,0.7,0.5c0.2,0.2,0.4,0.4,0.5,0.7c0.1,0.3,0.3,0.5,0.3,0.8
		c0.1,0.3,0.1,0.6,0.2,0.9c0,0.3,0.1,0.6,0.1,0.9l0,0.5c0,0.5-0.1,1.1-0.4,1.6c-0.2,0.4-0.5,0.7-0.9,1c-0.4,0.2-0.8,0.4-1.2,0.5
		c-0.5,0.1-0.9,0.1-1.4,0.1L408.2,2542.9z M412.1,2537c0,0-0.1,0-0.1,0c-0.1,0-0.3,0-0.4,0.1c-0.1,0-0.3,0.1-0.4,0.2
		c-0.1,0.1-0.2,0.2-0.3,0.3c-0.1,0.1-0.1,0.3-0.1,0.5c0,0.4,0.3,0.7,0.6,0.9c0.3,0.1,0.6,0.2,0.9,0.2c0.3,0,0.6,0,0.9-0.1
		c0-0.2,0-0.4,0-0.6c0-0.2-0.1-0.4-0.2-0.6c-0.1-0.2-0.2-0.4-0.3-0.5C412.5,2537.1,412.3,2537,412.1,2537L412.1,2537z M410.5,2532.6
		l1.2-1.3l1.3,1.3l-1.3,1.3L410.5,2532.6z M420.2,2542.9c-0.4,0-0.9,0-1.3-0.1c-0.3,0-0.6-0.1-0.9-0.3c-0.2-0.1-0.4-0.3-0.6-0.5
		c-0.2-0.2-0.3-0.4-0.3-0.7c-0.1-0.3-0.1-0.6-0.2-0.9c0-0.3,0-0.7,0-1.1v-6.5h1.7v6.5c0,0.3,0,0.6,0,0.9c0,0.2,0.1,0.4,0.2,0.5
		c0.1,0.1,0.3,0.2,0.5,0.2c0.3,0,0.6,0.1,0.9,0.1L420.2,2542.9z M425,2537.2c0,0,0,0.1,0.1,0.2c0,0.1,0.1,0.3,0.1,0.4
		c0,0.2,0.1,0.4,0.1,0.6s0.1,0.4,0.1,0.6s0.1,0.4,0.1,0.6c0,0.2,0,0.4,0,0.5c0,0.4-0.1,0.8-0.2,1.2c-0.1,0.3-0.3,0.6-0.6,0.9
		c-0.2,0.2-0.5,0.4-0.8,0.5c-0.3,0.1-0.6,0.2-0.9,0.2h-3v-1.7h3c0.1,0,0.2,0,0.2,0c0.1,0,0.2-0.1,0.3-0.1c0.1-0.1,0.2-0.2,0.3-0.3
		c0.1-0.2,0.1-0.4,0.1-0.6c0-0.1,0-0.2,0-0.4c0-0.1,0-0.3-0.1-0.5c0-0.2-0.1-0.3-0.1-0.5l-0.1-0.5c0-0.2-0.1-0.3-0.1-0.4
		c0-0.1-0.1-0.2-0.1-0.3L425,2537.2z M424.2,2546.7l-1.2-1.2l1.1-1.2l1.2,1.2L424.2,2546.7z M421.3,2546.7l-1.2-1.2l1.1-1.2l1.2,1.2
		L421.3,2546.7z M431.2,2542.5c0,0.6-0.1,1.2-0.4,1.7c-0.2,0.5-0.5,0.9-0.9,1.3c-0.4,0.4-0.8,0.6-1.3,0.8c-0.6,0.2-1.1,0.3-1.7,0.3
		h-0.8v-1.7h0.9c0.4,0,0.8,0,1.1-0.1c0.3-0.1,0.6-0.2,0.8-0.4c0.2-0.2,0.4-0.5,0.5-0.8c0.1-0.4,0.2-0.8,0.2-1.2v-4.2h1.7V2542.5z
		 M435.2,2542.9c-0.2,0-0.3,0-0.5,0c-0.2,0-0.3,0-0.5-0.1s-0.4-0.1-0.5-0.1c-0.2,0-0.4-0.1-0.6-0.2l-0.8-0.2l0.5-1.7
		c0.4,0.1,0.8,0.3,1.2,0.4c0.4,0.1,0.8,0.2,1.2,0.2c0.1,0,0.2,0,0.4,0c0.2,0,0.5,0,0.7-0.1c0.2,0,0.4-0.2,0.5-0.4c0,0,0-0.1,0-0.1
		c0-0.1,0-0.1,0-0.2c0-0.1-0.1-0.2-0.1-0.3l-2.6-3.7l1.4-0.9l0.5,0.7c0,0,0,0,0,0l0.1,0.1l0.2,0.3l0.4,0.5c0.1,0.2,0.3,0.5,0.5,0.8
		c0.2,0.3,0.5,0.7,0.8,1.2c0.2,0.3,0.4,0.7,0.4,1.1c0,0.1,0,0.2,0,0.3c0,0.3-0.1,0.5-0.2,0.8c-0.1,0.2-0.2,0.4-0.3,0.5
		c-0.1,0.2-0.3,0.3-0.5,0.4c-0.4,0.2-0.8,0.4-1.2,0.5C435.9,2542.9,435.5,2542.9,435.2,2542.9L435.2,2542.9z"/>
	<circle id="Ellipse_106" class="st0" cx="472.9" cy="2543" r="8.5"/>
	<g id="Ellipse_105" transform="translate(622.085 2172.003)">
		<circle class="st4" cx="-150.5" cy="367.9" r="8.5"/>
		<circle class="st5" cx="-150.5" cy="367.9" r="8"/>
	</g>
	<path id="Rectangle_2456" class="st0" d="M221.2,2558.4l9.6-9.6c2-2,5.1-2,7.1,0l9.6,9.6c2,2,2,5.1,0,7.1l-9.6,9.6
		c-2,2-5.1,2-7.1,0l-9.6-9.6C219.2,2563.5,219.2,2560.3,221.2,2558.4z"/>
	<g id="Rectangle_2457" transform="rotate(-45 2840.605 643.96)">
		<path class="st4" d="M-361.5,141.7h13.6c2.8,0,5,2.2,5,5v13.6c0,2.8-2.2,5-5,5h-13.6c-2.8,0-5-2.2-5-5v-13.6
			C-366.5,143.9-364.3,141.7-361.5,141.7z"/>
		<path class="st5" d="M-361.5,142.2h13.6c2.5,0,4.5,2,4.5,4.5v13.6c0,2.5-2,4.5-4.5,4.5h-13.6c-2.5,0-4.5-2-4.5-4.5v-13.6
			C-366,144.2-364,142.2-361.5,142.2z"/>
	</g>
	<g>
		<path class="st3" d="M398.8,2595.5c0-1.3,0.2-2.5,0.7-3.6c0.5-1.1,1.1-2.1,2-3c0.8-0.8,1.8-1.5,2.9-2c1.1-0.5,2.3-0.7,3.6-0.7
			c1.3,0,2.5,0.2,3.6,0.7c1.1,0.5,2.1,1.2,3,2c0.8,0.8,1.5,1.8,2,3c0.5,1.1,0.7,2.3,0.7,3.6c0,1.3-0.2,2.5-0.7,3.6
			c-0.5,1.1-1.2,2.1-2,2.9s-1.8,1.5-3,2c-1.1,0.5-2.3,0.7-3.6,0.7c-1.3,0-2.5-0.2-3.6-0.7c-1.1-0.5-2.1-1.1-2.9-2
			c-0.8-0.8-1.5-1.8-2-2.9C399,2598,398.8,2596.8,398.8,2595.5z M404.4,2595.5c0,0.5,0.1,1,0.3,1.4c0.2,0.4,0.5,0.8,0.8,1.2
			c0.3,0.3,0.7,0.6,1.2,0.8c0.4,0.2,0.9,0.3,1.4,0.3s1-0.1,1.5-0.3c0.5-0.2,0.9-0.5,1.2-0.8c0.3-0.3,0.6-0.7,0.8-1.2
			c0.2-0.4,0.3-0.9,0.3-1.4c0-0.5-0.1-1-0.3-1.5c-0.2-0.5-0.5-0.9-0.8-1.2c-0.3-0.3-0.7-0.6-1.2-0.8c-0.5-0.2-0.9-0.3-1.5-0.3
			s-1,0.1-1.4,0.3c-0.4,0.2-0.8,0.5-1.2,0.8c-0.3,0.3-0.6,0.7-0.8,1.2C404.5,2594.5,404.4,2595,404.4,2595.5z"/>
	</g>
</g>
</svg>
